<svg width="421" height="421" viewBox="0 0 421 421" fill="none" xmlns="http://www.w3.org/2000/svg">
<g clip-path="url(#clip0_53_219)">
<path d="M257.354 73.8011C293.772 94.231 340.197 98.3169 372.445 120.926C404.97 143.535 423.04 184.667 420.816 224.709C418.314 264.752 395.241 303.16 363.827 327.676C332.691 351.919 293.216 362.27 259.3 378.069C225.106 394.141 196.473 415.388 164.781 420.018C133.367 424.649 99.1735 412.391 69.7058 393.868C39.9601 375.618 14.9403 351.102 7.71241 321.955C0.484487 293.081 10.7704 259.576 9.93639 225.527C9.1024 191.477 -3.12948 157.155 0.762484 122.288C4.65445 87.6934 24.6702 52.8265 55.2499 28.8556C85.8296 5.15697 126.695 -7.37332 160.333 4.61217C194.249 16.5977 220.936 53.6437 257.354 73.8011Z" fill="#6C4EE2"/>
</g>
<g clip-path="url(#clip1_53_219)">
<path d="M99.3388 203.588C103.785 203.588 107.389 199.984 107.389 195.538C107.389 191.092 103.785 187.487 99.3388 187.487C94.8928 187.487 91.2886 191.092 91.2886 195.538C91.2886 199.984 94.8928 203.588 99.3388 203.588Z" fill="#FFB8B8"/>
<path d="M72.1378 292.006L74.1761 295.469L88.5033 289.255L85.4947 284.144L72.1378 292.006Z" fill="#FFB8B8"/>
<path d="M72.7486 290.458L76.7628 297.277C77.0987 297.848 77.3191 298.48 77.4111 299.136C77.503 299.791 77.4649 300.459 77.2989 301.1C77.1328 301.741 76.8421 302.343 76.4434 302.872C76.0446 303.401 75.5456 303.846 74.9749 304.182L74.8336 304.265L68.2612 293.099L72.7486 290.458Z" fill="#2F2E41"/>
<path d="M95.7551 304.482L99.7735 304.482L101.685 288.982L95.7545 288.983L95.7551 304.482Z" fill="#FFB8B8"/>
<path d="M94.7306 303.17L102.644 303.17C103.306 303.17 103.962 303.3 104.574 303.553C105.186 303.807 105.742 304.178 106.21 304.647C106.679 305.115 107.05 305.671 107.304 306.283C107.557 306.895 107.687 307.55 107.687 308.213V308.376L94.7308 308.377L94.7306 303.17Z" fill="#2F2E41"/>
<path d="M79.6006 295.091C79.3694 295.091 79.1413 295.037 78.935 294.933C78.7286 294.828 78.5497 294.677 78.4128 294.491L74.5374 289.227C74.4192 289.067 74.3348 288.884 74.2892 288.69C74.2436 288.496 74.2379 288.294 74.2724 288.098C74.3068 287.901 74.3807 287.714 74.4896 287.547C74.5985 287.38 74.7402 287.237 74.906 287.126L92.1509 275.608L81.7456 248.248L103.997 250.084L104.747 273.596C104.817 275.737 104.304 277.857 103.262 279.729C102.22 281.601 100.689 283.155 98.832 284.223L80.3375 294.893C80.1136 295.023 79.8594 295.091 79.6006 295.091Z" fill="#121214"/>
<path d="M95.8766 301.335C95.495 301.334 95.1285 301.186 94.8541 300.921C94.5798 300.655 94.4189 300.294 94.4053 299.913L93.5898 277.008L103.688 276.476L102.884 299.545C102.872 299.911 102.724 300.259 102.47 300.521C102.215 300.784 101.872 300.942 101.507 300.965L95.9768 301.332C95.9433 301.334 95.9099 301.335 95.8766 301.335Z" fill="#121214"/>
<path d="M106.572 254.633C104.003 254.633 95.0295 251.743 91.9142 250.713C91.4482 251.086 88.8879 253 85.8994 252.651C84.0554 252.434 82.4321 251.39 81.0745 249.548C78.0764 245.479 81.7794 228.03 85.4137 214.108C86.1423 211.294 87.9335 208.872 90.4108 207.352C92.888 205.831 95.8584 205.33 98.6974 205.954C100.755 206.408 102.645 207.427 104.156 208.896C105.666 210.366 106.737 212.227 107.248 214.272C107.932 217.057 107.344 220.333 106.914 222.726C106.712 223.851 106.552 224.739 106.607 225.176C106.818 226.863 107.989 253.328 107.236 254.458C107.156 254.578 106.924 254.633 106.572 254.633Z" fill="#202024"/>
<path d="M97.1735 254.68C97.5864 254.372 97.9269 253.978 98.171 253.525C98.4151 253.072 98.5568 252.571 98.5863 252.057C98.6157 251.543 98.5321 251.029 98.3413 250.551C98.1505 250.072 97.8573 249.642 97.4821 249.289L97.6412 217.22L90.088 218.478L92.3067 249.605C91.7563 250.275 91.4706 251.123 91.5037 251.989C91.5368 252.855 91.8864 253.679 92.4863 254.304C93.0862 254.93 93.8947 255.313 94.7586 255.383C95.6225 255.452 96.4817 255.202 97.1735 254.68Z" fill="#FFB8B8"/>
<path d="M98.9203 237.815H90.7846C90.3961 237.814 90.0237 237.66 89.7477 237.387C89.4717 237.113 89.3144 236.742 89.3097 236.354L89.11 214.298C89.1031 213.535 89.2474 212.779 89.5347 212.072C89.822 211.366 90.2465 210.723 90.7836 210.182C91.3208 209.64 91.96 209.211 92.6642 208.918C93.3684 208.625 94.1237 208.475 94.8864 208.476C95.6491 208.477 96.404 208.629 97.1075 208.924C97.811 209.218 98.4491 209.649 98.985 210.192C99.5208 210.735 99.9437 211.378 100.229 212.085C100.515 212.793 100.657 213.549 100.649 214.312L100.395 236.357C100.389 236.745 100.232 237.115 99.9558 237.388C99.68 237.66 99.3081 237.814 98.9203 237.815Z" fill="#202024"/>
<path d="M97.2894 203.554C93.6036 203.561 90.1264 200.648 89.4877 197.018C89.259 195.592 89.3621 194.132 89.789 192.752C90.2525 191.182 91.0473 189.728 92.1199 188.491C93.1925 187.253 94.518 186.26 96.0069 185.578C97.4958 184.897 99.1137 184.542 100.751 184.538C102.389 184.534 104.008 184.882 105.5 185.557C106.486 186.003 107.458 186.644 107.909 187.628C108.361 188.611 108.078 189.986 107.09 190.428C106.445 190.718 105.635 190.576 105.062 190.991C104.24 191.587 104.452 192.856 104.819 193.803C105.186 194.751 105.602 195.897 104.986 196.705C104.412 197.458 103.266 197.435 102.362 197.151C101.459 196.868 100.568 196.393 99.626 196.49C98.2526 196.63 97.2656 197.997 97.0829 199.365C96.9002 200.734 97.3303 202.102 97.7549 203.415L97.2894 203.554Z" fill="#2F2E41"/>
<path d="M134.891 308.685H50.3278C50.2408 308.685 50.1575 308.651 50.096 308.589C50.0345 308.528 50 308.445 50 308.358C50 308.271 50.0345 308.187 50.096 308.126C50.1575 308.064 50.2408 308.03 50.3278 308.03H134.891C134.977 308.03 135.061 308.064 135.122 308.126C135.184 308.187 135.218 308.271 135.218 308.358C135.218 308.445 135.184 308.528 135.122 308.589C135.061 308.651 134.977 308.685 134.891 308.685Z" fill="white"/>
<path d="M348.304 254.429H138.261C136.827 254.427 135.453 253.857 134.439 252.843C133.425 251.829 132.855 250.454 132.853 249.02V119.504C132.854 118.453 133.272 117.446 134.015 116.704C134.757 115.961 135.764 115.543 136.815 115.542H349.681C350.75 115.543 351.775 115.968 352.53 116.724C353.286 117.479 353.711 118.504 353.712 119.572V249.02C353.71 250.454 353.14 251.829 352.126 252.843C351.112 253.857 349.738 254.427 348.304 254.429Z" fill="#F2F2F2"/>
<path d="M341.512 247.6H145.758C142.888 247.6 140.554 245.414 140.554 242.727V129.942C140.554 127.95 142.284 126.328 144.41 126.328H342.796C344.958 126.328 346.717 127.976 346.717 130.002V242.727C346.717 245.414 344.382 247.6 341.512 247.6Z" fill="white"/>
<path d="M353.636 120.178H132.777V117.424C132.779 115.986 133.351 114.607 134.369 113.59C135.386 112.573 136.766 112.001 138.204 112H348.208C349.647 112.001 351.026 112.573 352.044 113.59C353.062 114.607 353.634 115.986 353.636 117.424V120.178Z" fill="#3F3D56"/>
<path d="M142.641 117.501C143.417 117.501 144.045 116.872 144.045 116.097C144.045 115.322 143.417 114.693 142.641 114.693C141.866 114.693 141.237 115.322 141.237 116.097C141.237 116.872 141.866 117.501 142.641 117.501Z" fill="white"/>
<path d="M147.97 117.501C148.745 117.501 149.374 116.872 149.374 116.097C149.374 115.322 148.745 114.693 147.97 114.693C147.195 114.693 146.566 115.322 146.566 116.097C146.566 116.872 147.195 117.501 147.97 117.501Z" fill="white"/>
<path d="M153.299 117.501C154.074 117.501 154.703 116.872 154.703 116.097C154.703 115.322 154.074 114.693 153.299 114.693C152.523 114.693 151.895 115.322 151.895 116.097C151.895 116.872 152.523 117.501 153.299 117.501Z" fill="white"/>
<path d="M238.991 150.989H200.706C200.135 150.989 199.588 150.762 199.184 150.358C198.781 149.955 198.554 149.407 198.554 148.837C198.554 148.266 198.781 147.719 199.184 147.315C199.588 146.911 200.135 146.685 200.706 146.685H238.991C239.562 146.685 240.109 146.911 240.513 147.315C240.917 147.719 241.143 148.266 241.143 148.837C241.143 149.407 240.917 149.955 240.513 150.358C240.109 150.762 239.562 150.989 238.991 150.989Z" fill="#CCCCCC"/>
<path d="M286.565 150.989H248.279C247.708 150.989 247.161 150.762 246.757 150.358C246.354 149.955 246.127 149.407 246.127 148.837C246.127 148.266 246.354 147.719 246.757 147.315C247.161 146.911 247.708 146.685 248.279 146.685H286.565C287.135 146.685 287.683 146.911 288.086 147.315C288.49 147.719 288.717 148.266 288.717 148.837C288.717 149.407 288.49 149.955 288.086 150.358C287.683 150.762 287.135 150.989 286.565 150.989Z" fill="#CCCCCC"/>
<path d="M286.564 159.144H219.961C219.391 159.144 218.843 158.917 218.44 158.514C218.036 158.11 217.809 157.563 217.809 156.992C217.809 156.421 218.036 155.874 218.44 155.47C218.843 155.067 219.391 154.84 219.961 154.84H286.564C287.135 154.84 287.682 155.067 288.086 155.47C288.49 155.874 288.716 156.421 288.716 156.992C288.716 157.563 288.49 158.11 288.086 158.514C287.682 158.917 287.135 159.144 286.564 159.144Z" fill="#CCCCCC"/>
<path d="M238.991 142.72H200.706C200.136 142.719 199.589 142.492 199.186 142.089C198.783 141.685 198.557 141.138 198.557 140.568C198.557 139.998 198.783 139.451 199.186 139.047C199.589 138.644 200.136 138.417 200.706 138.416H238.991C239.274 138.415 239.554 138.471 239.816 138.579C240.077 138.687 240.315 138.845 240.515 139.045C240.715 139.245 240.874 139.482 240.982 139.744C241.09 140.005 241.146 140.285 241.146 140.568C241.146 140.851 241.09 141.131 240.982 141.392C240.874 141.653 240.715 141.891 240.515 142.091C240.315 142.291 240.077 142.449 239.816 142.557C239.554 142.665 239.274 142.72 238.991 142.72Z" fill="#CCCCCC"/>
<path d="M260.06 142.833H249.186C248.615 142.833 248.067 142.607 247.664 142.203C247.26 141.799 247.033 141.252 247.033 140.681C247.033 140.11 247.26 139.563 247.664 139.159C248.067 138.756 248.615 138.529 249.186 138.529H260.06C260.63 138.529 261.178 138.756 261.581 139.159C261.985 139.563 262.212 140.11 262.212 140.681C262.212 141.252 261.985 141.799 261.581 142.203C261.178 142.607 260.63 142.833 260.06 142.833Z" fill="#CCCCCC"/>
<path d="M211.58 159.144H200.706C200.136 159.144 199.589 158.916 199.186 158.513C198.783 158.109 198.557 157.562 198.557 156.992C198.557 156.422 198.783 155.875 199.186 155.471C199.589 155.068 200.136 154.841 200.706 154.84H211.58C211.863 154.84 212.143 154.895 212.404 155.003C212.666 155.111 212.903 155.269 213.104 155.469C213.304 155.669 213.462 155.907 213.571 156.168C213.679 156.429 213.735 156.709 213.735 156.992C213.735 157.275 213.679 157.555 213.571 157.816C213.462 158.078 213.304 158.315 213.104 158.515C212.903 158.715 212.666 158.873 212.404 158.981C212.143 159.089 211.863 159.145 211.58 159.144Z" fill="#CCCCCC"/>
<path d="M238.991 227.357H200.706C200.135 227.357 199.588 227.131 199.184 226.727C198.781 226.324 198.554 225.776 198.554 225.205C198.554 224.635 198.781 224.087 199.184 223.684C199.588 223.28 200.135 223.053 200.706 223.053H238.991C239.274 223.053 239.554 223.109 239.815 223.217C240.076 223.325 240.313 223.484 240.513 223.684C240.713 223.883 240.871 224.121 240.98 224.382C241.088 224.643 241.143 224.923 241.143 225.205C241.143 225.488 241.088 225.768 240.98 226.029C240.871 226.29 240.713 226.527 240.513 226.727C240.313 226.927 240.076 227.086 239.815 227.194C239.554 227.302 239.274 227.357 238.991 227.357Z" fill="#CCCCCC"/>
<path d="M286.565 227.357H248.279C247.708 227.357 247.161 227.131 246.757 226.727C246.354 226.324 246.127 225.776 246.127 225.205C246.127 224.635 246.354 224.087 246.757 223.684C247.161 223.28 247.708 223.053 248.279 223.053H286.565C286.847 223.053 287.127 223.109 287.388 223.217C287.649 223.325 287.886 223.484 288.086 223.684C288.286 223.883 288.445 224.121 288.553 224.382C288.661 224.643 288.717 224.923 288.717 225.205C288.717 225.488 288.661 225.768 288.553 226.029C288.445 226.29 288.286 226.527 288.086 226.727C287.886 226.927 287.649 227.086 287.388 227.194C287.127 227.302 286.847 227.357 286.565 227.357Z" fill="#CCCCCC"/>
<path d="M286.564 235.513H219.961C219.391 235.513 218.843 235.286 218.44 234.883C218.036 234.479 217.809 233.932 217.809 233.361C217.809 232.79 218.036 232.243 218.44 231.839C218.843 231.435 219.391 231.209 219.961 231.209H286.564C286.847 231.208 287.127 231.264 287.389 231.372C287.65 231.48 287.888 231.638 288.088 231.838C288.288 232.038 288.447 232.275 288.555 232.537C288.663 232.798 288.719 233.078 288.719 233.361C288.719 233.644 288.663 233.924 288.555 234.185C288.447 234.446 288.288 234.684 288.088 234.884C287.888 235.083 287.65 235.242 287.389 235.35C287.127 235.458 286.847 235.513 286.564 235.513Z" fill="#CCCCCC"/>
<path d="M238.991 219.089H200.706C200.135 219.089 199.588 218.862 199.184 218.458C198.781 218.055 198.554 217.507 198.554 216.937C198.554 216.366 198.781 215.818 199.184 215.415C199.588 215.011 200.135 214.784 200.706 214.784H238.991C239.562 214.784 240.109 215.011 240.513 215.415C240.917 215.818 241.143 216.366 241.143 216.937C241.143 217.507 240.917 218.055 240.513 218.458C240.109 218.862 239.562 219.089 238.991 219.089Z" fill="#CCCCCC"/>
<path d="M260.06 219.202H249.186C248.615 219.202 248.067 218.975 247.664 218.572C247.26 218.168 247.033 217.621 247.033 217.05C247.033 216.479 247.26 215.932 247.664 215.528C248.067 215.124 248.615 214.898 249.186 214.898H260.06C260.63 214.898 261.178 215.124 261.581 215.528C261.985 215.932 262.212 216.479 262.212 217.05C262.212 217.621 261.985 218.168 261.581 218.572C261.178 218.975 260.63 219.202 260.06 219.202Z" fill="#CCCCCC"/>
<path d="M211.58 235.513H200.706C200.135 235.513 199.588 235.286 199.184 234.883C198.781 234.479 198.554 233.932 198.554 233.361C198.554 232.79 198.781 232.243 199.184 231.839C199.588 231.435 200.135 231.209 200.706 231.209H211.58C211.863 231.208 212.143 231.264 212.404 231.372C212.666 231.48 212.903 231.638 213.103 231.838C213.304 232.038 213.462 232.275 213.571 232.537C213.679 232.798 213.735 233.078 213.735 233.361C213.735 233.644 213.679 233.924 213.571 234.185C213.462 234.446 213.304 234.684 213.103 234.884C212.903 235.083 212.666 235.242 212.404 235.35C212.143 235.458 211.863 235.513 211.58 235.513Z" fill="#CCCCCC"/>
<path d="M228.992 204.253C228.18 204.254 227.4 203.935 226.821 203.364L212.43 189.153C212.147 188.874 211.923 188.541 211.77 188.175C211.617 187.809 211.538 187.416 211.538 187.018C211.538 186.621 211.617 186.228 211.77 185.862C211.923 185.496 212.147 185.163 212.43 184.884L226.763 170.73C227.36 170.143 228.165 169.816 229.002 169.818C229.839 169.821 230.642 170.154 231.235 170.744C231.829 171.339 232.163 172.146 232.163 172.987C232.163 173.828 231.829 174.635 231.235 175.23L220.584 185.881C220.252 186.214 220.066 186.665 220.066 187.134C220.066 187.604 220.252 188.055 220.584 188.388L231.177 198.981C231.61 199.413 231.905 199.963 232.024 200.562C232.144 201.162 232.082 201.783 231.848 202.348C231.614 202.912 231.218 203.395 230.71 203.734C230.201 204.073 229.603 204.253 228.992 204.253Z" fill="#7957FF"/>
<path d="M251.924 204.253C251.313 204.253 250.715 204.073 250.207 203.734C249.699 203.395 249.302 202.912 249.068 202.348C248.834 201.783 248.773 201.162 248.893 200.562C249.012 199.963 249.307 199.413 249.739 198.981L260.332 188.387C260.664 188.055 260.851 187.604 260.851 187.134C260.851 186.665 260.664 186.214 260.332 185.881L249.682 175.23C249.387 174.935 249.153 174.586 248.994 174.201C248.834 173.816 248.752 173.404 248.752 172.987C248.752 172.57 248.835 172.158 248.994 171.773C249.153 171.388 249.387 171.039 249.682 170.744C250.275 170.153 251.077 169.821 251.915 169.818C252.752 169.815 253.556 170.143 254.153 170.73L268.487 184.884C268.769 185.163 268.994 185.496 269.147 185.862C269.3 186.228 269.379 186.621 269.379 187.018C269.379 187.416 269.3 187.809 269.147 188.175C268.994 188.541 268.769 188.874 268.487 189.153L254.095 203.364C253.517 203.935 252.737 204.254 251.924 204.253Z" fill="#7957FF"/>
</g>
<defs>
<clipPath id="clip0_53_219">
<rect width="421" height="421" fill="white"/>
</clipPath>
<clipPath id="clip1_53_219">
<rect width="303.712" height="196.685" fill="white" transform="translate(50 112)"/>
</clipPath>
</defs>
</svg>
