<svg width="170" height="35" viewBox="0 0 170 35" fill="none" xmlns="http://www.w3.org/2000/svg">
<path d="M10.8182 33.0591C9.77879 33.0591 8.84545 32.9955 8.01818 32.8682C7.19091 32.7621 6.49091 32.55 5.91818 32.2318C5.34545 31.9348 4.91061 31.4894 4.61364 30.8955C4.31667 30.3015 4.16818 29.5379 4.16818 28.6045V22.0818C4.16818 21.6152 4.0197 21.2439 3.72273 20.9682C3.44697 20.6924 3.08636 20.5015 2.64091 20.3955C2.19545 20.2682 1.73939 20.2045 1.27273 20.2045V17.4364C1.73939 17.4364 2.18485 17.3833 2.60909 17.2773C3.05455 17.15 3.42576 16.9485 3.72273 16.6727C4.0197 16.3758 4.16818 16.0045 4.16818 15.5591V9.06818C4.16818 8.11363 4.31667 7.35 4.61364 6.77727C4.91061 6.18333 5.34545 5.72727 5.91818 5.40909C6.51212 5.09091 7.22273 4.87879 8.05 4.77273C8.87727 4.66667 9.8 4.61364 10.8182 4.61364V7.03182C10.4152 7.03182 9.99091 7.08485 9.54545 7.19091C9.1 7.27576 8.71818 7.45606 8.4 7.73182C8.08182 7.98636 7.91212 8.37879 7.89091 8.90909L7.63636 15.2727C7.61515 16.3333 7.32879 17.1712 6.77727 17.7864C6.24697 18.3803 5.34545 18.6773 4.07273 18.6773V18.9955C4.92121 18.9955 5.6 19.1333 6.10909 19.4091C6.61818 19.6636 6.98939 20.0455 7.22273 20.5545C7.47727 21.0636 7.61515 21.6682 7.63636 22.3682L7.89091 28.7318C7.91212 29.2621 8.07121 29.6545 8.36818 29.9091C8.68636 30.1848 9.06818 30.3652 9.51364 30.45C9.95909 30.5561 10.3939 30.6091 10.8182 30.6091V33.0591Z" fill="#7957FF"/>
<path d="M25.9545 28.3818C24.5758 28.3818 23.3773 28.0742 22.3591 27.4591C21.3621 26.8227 20.5879 25.8576 20.0364 24.5636C19.4848 23.2697 19.2091 21.6152 19.2091 19.6C19.2091 17.5848 19.4848 15.9409 20.0364 14.6682C20.6091 13.3742 21.3833 12.4197 22.3591 11.8045C23.3561 11.1894 24.5015 10.8818 25.7955 10.8818C26.5167 10.8818 27.1848 10.9667 27.8 11.1364C28.4364 11.2848 28.9879 11.5288 29.4545 11.8682C29.9424 12.2076 30.3561 12.6212 30.6955 13.1091H30.8864V4.99545H35.3091V28H31.6818L31.3318 25.7409H31.1091C30.5576 26.6318 29.8364 27.3 28.9455 27.7455C28.0545 28.1697 27.0576 28.3818 25.9545 28.3818ZM27.3545 24.7545C28.1818 24.7545 28.85 24.5636 29.3591 24.1818C29.8894 23.8 30.2818 23.2485 30.5364 22.5273C30.7909 21.8061 30.9182 20.947 30.9182 19.95V19.3773C30.9182 18.6348 30.8439 17.9561 30.6955 17.3409C30.5682 16.7258 30.3561 16.2167 30.0591 15.8136C29.7621 15.3894 29.3909 15.0712 28.9455 14.8591C28.5 14.6258 27.9697 14.5091 27.3545 14.5091C26.4636 14.5091 25.753 14.6894 25.2227 15.05C24.6924 15.3894 24.3106 15.9197 24.0773 16.6409C23.8439 17.3409 23.7273 18.2212 23.7273 19.2818V20.0136C23.7273 21.0742 23.8439 21.9545 24.0773 22.6545C24.3106 23.3545 24.6924 23.8848 25.2227 24.2455C25.753 24.5848 26.4636 24.7545 27.3545 24.7545ZM46.999 28.3818C45.1536 28.3818 43.6051 28.0742 42.3536 27.4591C41.1021 26.8227 40.1581 25.8576 39.5218 24.5636C38.8854 23.2697 38.5672 21.6258 38.5672 19.6318C38.5672 17.6167 38.8854 15.9727 39.5218 14.7C40.1581 13.4061 41.0915 12.4515 42.3218 11.8364C43.5733 11.2 45.1006 10.8818 46.9036 10.8818C48.6006 10.8818 50.0324 11.1894 51.199 11.8045C52.3657 12.3985 53.246 13.3318 53.8399 14.6045C54.4339 15.8561 54.7309 17.4788 54.7309 19.4727V20.6182H43.0536C43.096 21.5939 43.2445 22.4212 43.499 23.1C43.7748 23.7788 44.1884 24.2879 44.7399 24.6273C45.3127 24.9455 46.0657 25.1045 46.999 25.1045C47.5081 25.1045 47.9642 25.0409 48.3672 24.9136C48.7915 24.7864 49.1521 24.5955 49.449 24.3409C49.746 24.0864 49.9793 23.7682 50.149 23.3864C50.3187 23.0045 50.4036 22.5697 50.4036 22.0818H54.7309C54.7309 23.1424 54.5399 24.0652 54.1581 24.85C53.7763 25.6348 53.246 26.2924 52.5672 26.8227C51.8884 27.3318 51.0718 27.7242 50.1172 28C49.1839 28.2545 48.1445 28.3818 46.999 28.3818ZM43.1172 17.8182H50.1809C50.1809 17.1818 50.096 16.6303 49.9263 16.1636C49.7778 15.697 49.5657 15.3152 49.29 15.0182C49.0142 14.7212 48.6748 14.5091 48.2718 14.3818C47.89 14.2333 47.4551 14.1591 46.9672 14.1591C46.1612 14.1591 45.4824 14.297 44.9309 14.5727C44.4006 14.8273 43.9869 15.2303 43.69 15.7818C43.4142 16.3121 43.2233 16.9909 43.1172 17.8182ZM62.3031 28L56.0667 11.2636H60.744L63.194 18.3273C63.3213 18.6879 63.4698 19.1652 63.6395 19.7591C63.8304 20.353 64.0213 20.9788 64.2122 21.6364C64.4031 22.2939 64.5622 22.8879 64.6895 23.4182H64.8485C64.997 22.9303 65.1561 22.3682 65.3258 21.7318C65.4955 21.0742 65.6652 20.4485 65.8349 19.8545C66.0258 19.2394 66.1849 18.7303 66.3122 18.3273L68.7622 11.2636H73.2167L66.9485 28H62.3031ZM76.052 15.8136V11.2636H80.6657V15.8136H76.052ZM76.052 28V23.45H80.6657V28H76.052ZM101.269 28V6.17273H106.01V23.9591H117.019V28H101.269ZM129.032 28.3818C125.595 28.3818 122.944 27.4697 121.077 25.6455C119.232 23.8 118.309 20.947 118.309 17.0864C118.309 14.5197 118.754 12.4091 119.645 10.7545C120.536 9.07879 121.83 7.83788 123.527 7.03182C125.224 6.20454 127.26 5.79091 129.636 5.79091C131.057 5.79091 132.394 5.95 133.645 6.26818C134.897 6.58636 136 7.07424 136.954 7.73182C137.93 8.38939 138.683 9.21667 139.213 10.2136C139.765 11.1894 140.041 12.3561 140.041 13.7136H135.236C135.236 13.0561 135.088 12.4727 134.791 11.9636C134.515 11.4545 134.122 11.0303 133.613 10.6909C133.104 10.3515 132.521 10.097 131.863 9.92727C131.206 9.75757 130.516 9.67273 129.795 9.67273C128.692 9.67273 127.727 9.82121 126.9 10.1182C126.072 10.3939 125.383 10.8288 124.832 11.4227C124.301 11.9955 123.898 12.7167 123.622 13.5864C123.347 14.4561 123.209 15.4636 123.209 16.6091V17.5636C123.209 19.1545 123.442 20.4591 123.909 21.4773C124.375 22.4955 125.075 23.2591 126.009 23.7682C126.942 24.2561 128.098 24.5 129.477 24.5C130.622 24.5 131.63 24.3303 132.5 23.9909C133.391 23.6303 134.08 23.1212 134.568 22.4636C135.077 21.8061 135.332 21 135.332 20.0455V19.8227H128.809V16.1955H140.041V28H136.922L136.509 25.6455C135.872 26.2606 135.183 26.7697 134.441 27.1727C133.719 27.5758 132.913 27.8727 132.022 28.0636C131.132 28.2758 130.135 28.3818 129.032 28.3818Z" fill="white"/>
<path d="M96.6782 6.17273V7.95454C96.1903 8.01818 95.766 8.2197 95.4054 8.55909C95.066 8.89848 94.8009 9.33333 94.61 9.86363C94.4403 10.3727 94.3554 10.9242 94.3554 11.5182H96.5191V15.9091H92.0645V11.9318C92.0645 10.6591 92.2766 9.6197 92.7009 8.81363C93.1463 8.00757 93.7191 7.39242 94.4191 6.96818C95.1191 6.54394 95.8721 6.27879 96.6782 6.17273ZM144.328 15.9091V14.1273C144.837 14.0424 145.262 13.8409 145.601 13.5227C145.962 13.1833 146.227 12.7591 146.397 12.25C146.587 11.7197 146.683 11.1576 146.683 10.5636H144.519V6.17273H148.942V10.15C148.942 11.4015 148.719 12.4303 148.274 13.2364C147.85 14.0424 147.287 14.6576 146.587 15.0818C145.887 15.5061 145.134 15.7818 144.328 15.9091Z" fill="#7957FF"/>
<path d="M158.686 4.61364C159.705 4.61364 160.627 4.67727 161.455 4.80454C162.282 4.9106 162.982 5.12273 163.555 5.44091C164.148 5.73788 164.594 6.18333 164.891 6.77727C165.188 7.37121 165.336 8.13485 165.336 9.06818V15.5909C165.336 16.0364 165.474 16.4076 165.75 16.7045C166.047 16.9803 166.418 17.1818 166.864 17.3091C167.33 17.4152 167.786 17.4682 168.232 17.4682V20.2364C167.786 20.2364 167.341 20.3 166.895 20.4273C166.45 20.5333 166.079 20.7242 165.782 21C165.485 21.2758 165.336 21.647 165.336 22.1136V28.6045C165.336 29.5379 165.177 30.3015 164.859 30.8955C164.562 31.4894 164.127 31.9455 163.555 32.2636C162.982 32.5818 162.282 32.7939 161.455 32.9C160.627 33.0061 159.705 33.0591 158.686 33.0591V30.6409C159.089 30.6409 159.514 30.5879 159.959 30.4818C160.405 30.397 160.786 30.2167 161.105 29.9409C161.423 29.6652 161.592 29.2727 161.614 28.7636L161.868 22.4C161.911 21.3394 162.197 20.5121 162.727 19.9182C163.258 19.303 164.159 18.9955 165.432 18.9955V18.6773C164.583 18.6773 163.905 18.55 163.395 18.2955C162.886 18.0197 162.505 17.6273 162.25 17.1182C162.017 16.6091 161.889 16.0045 161.868 15.3045L161.614 8.94091C161.592 8.41061 161.423 8.01818 161.105 7.76364C160.808 7.48788 160.436 7.30757 159.991 7.22273C159.567 7.11666 159.132 7.06363 158.686 7.06363V4.61364Z" fill="#7957FF"/>
</svg>
